<mxfile host="app.diagrams.net" modified="2020-10-27T06:36:20.146Z" agent="5.0 (Macintosh; Intel Mac OS X 10_15_6) AppleWebKit/537.36 (KHTML, like Gecko) Chrome/86.0.4240.80 Safari/537.36" etag="ZmQ5Vo9r4k9ztZyb94Ls" version="13.8.1" type="github">
  <diagram id="YVggR_SqwR1qEsMGm2nK" name="Page-1">
    <mxGraphModel dx="1229" dy="786" grid="1" gridSize="10" guides="1" tooltips="1" connect="1" arrows="1" fold="1" page="1" pageScale="1" pageWidth="827" pageHeight="1169" math="0" shadow="0">
      <root>
        <mxCell id="0" />
        <mxCell id="1" parent="0" />
        <mxCell id="NF-i37rxTWXbvh0fXEa0-4" value="" style="endArrow=classic;html=1;exitX=0.5;exitY=1;exitDx=0;exitDy=0;" edge="1" parent="1">
          <mxGeometry width="50" height="50" relative="1" as="geometry">
            <mxPoint x="340" y="150" as="sourcePoint" />
            <mxPoint x="340" y="230" as="targetPoint" />
          </mxGeometry>
        </mxCell>
        <mxCell id="NF-i37rxTWXbvh0fXEa0-5" value="&lt;span style=&quot;color: rgb(25 , 25 , 25) ; font-size: 13.3333px&quot;&gt;拋料、AOI原始數據&lt;/span&gt;" style="rounded=1;whiteSpace=wrap;html=1;" vertex="1" parent="1">
          <mxGeometry x="280" y="90" width="120" height="60" as="geometry" />
        </mxCell>
        <mxCell id="NF-i37rxTWXbvh0fXEa0-6" value="數據清洗" style="rounded=0;whiteSpace=wrap;html=1;" vertex="1" parent="1">
          <mxGeometry x="280" y="230" width="120" height="60" as="geometry" />
        </mxCell>
        <mxCell id="NF-i37rxTWXbvh0fXEa0-7" value="&lt;h1&gt;&lt;font style=&quot;font-size: 14px&quot;&gt;卡爾曼濾波&lt;/font&gt;&lt;/h1&gt;&lt;p&gt;降噪除去干擾；&lt;/p&gt;&lt;p&gt;數理統計，箱型圖，趨勢圖走勢觀察法；&lt;br&gt;&lt;/p&gt;" style="text;html=1;strokeColor=none;fillColor=none;spacing=5;spacingTop=-20;whiteSpace=wrap;overflow=hidden;rounded=0;" vertex="1" parent="1">
          <mxGeometry x="410" y="200" width="190" height="120" as="geometry" />
        </mxCell>
        <mxCell id="NF-i37rxTWXbvh0fXEa0-8" value="收集各類拋料、AOI良率相關數據" style="text;html=1;strokeColor=none;fillColor=none;align=center;verticalAlign=middle;whiteSpace=wrap;rounded=0;" vertex="1" parent="1">
          <mxGeometry x="350" y="170" width="160" height="20" as="geometry" />
        </mxCell>
        <mxCell id="NF-i37rxTWXbvh0fXEa0-11" value="" style="endArrow=classic;html=1;exitX=0.5;exitY=1;exitDx=0;exitDy=0;entryX=0.5;entryY=0;entryDx=0;entryDy=0;" edge="1" parent="1" target="Jk7-eTZNPEbHa-RgvJYL-1">
          <mxGeometry width="50" height="50" relative="1" as="geometry">
            <mxPoint x="339.5" y="290" as="sourcePoint" />
            <mxPoint x="339.5" y="370" as="targetPoint" />
          </mxGeometry>
        </mxCell>
        <mxCell id="bCzsvnsTS2TMmKOJLa1n-2" value="" style="endArrow=classic;html=1;exitX=0.5;exitY=1;exitDx=0;exitDy=0;" edge="1" parent="1">
          <mxGeometry width="50" height="50" relative="1" as="geometry">
            <mxPoint x="339.5" y="450" as="sourcePoint" />
            <mxPoint x="339.5" y="530" as="targetPoint" />
          </mxGeometry>
        </mxCell>
        <mxCell id="bCzsvnsTS2TMmKOJLa1n-3" value="模型構建" style="whiteSpace=wrap;html=1;aspect=fixed;" vertex="1" parent="1">
          <mxGeometry x="300" y="530" width="80" height="80" as="geometry" />
        </mxCell>
        <mxCell id="bCzsvnsTS2TMmKOJLa1n-4" value="" style="endArrow=classic;html=1;exitX=0.5;exitY=1;exitDx=0;exitDy=0;" edge="1" parent="1">
          <mxGeometry width="50" height="50" relative="1" as="geometry">
            <mxPoint x="339.5" y="610" as="sourcePoint" />
            <mxPoint x="339.5" y="690" as="targetPoint" />
          </mxGeometry>
        </mxCell>
        <mxCell id="bCzsvnsTS2TMmKOJLa1n-5" value="貼片機剩餘保養預測" style="rounded=1;whiteSpace=wrap;html=1;" vertex="1" parent="1">
          <mxGeometry x="280" y="690" width="120" height="60" as="geometry" />
        </mxCell>
        <mxCell id="bCzsvnsTS2TMmKOJLa1n-6" value="&lt;h1&gt;&lt;font style=&quot;font-size: 14px&quot;&gt;數據分析&lt;/font&gt;&lt;/h1&gt;&lt;p&gt;通過均值、最大/小值、極差、中位數、標準差、均方根、四分衛差、期望、方差、相位、卡爾曼濾波值、單位密度、離散係數特徵值分析數據規律&lt;/p&gt;" style="text;html=1;strokeColor=none;fillColor=none;spacing=5;spacingTop=-20;whiteSpace=wrap;overflow=hidden;rounded=0;" vertex="1" parent="1">
          <mxGeometry x="400" y="350" width="190" height="120" as="geometry" />
        </mxCell>
        <mxCell id="bCzsvnsTS2TMmKOJLa1n-7" value="" style="endArrow=classic;html=1;" edge="1" parent="1">
          <mxGeometry width="50" height="50" relative="1" as="geometry">
            <mxPoint x="340" y="450" as="sourcePoint" />
            <mxPoint x="150" y="540" as="targetPoint" />
          </mxGeometry>
        </mxCell>
        <mxCell id="bCzsvnsTS2TMmKOJLa1n-8" value="關聯拋料與AOI良率" style="rounded=0;whiteSpace=wrap;html=1;" vertex="1" parent="1">
          <mxGeometry x="90" y="540" width="120" height="60" as="geometry" />
        </mxCell>
        <mxCell id="bCzsvnsTS2TMmKOJLa1n-9" value="" style="endArrow=classic;html=1;exitX=1;exitY=0.5;exitDx=0;exitDy=0;entryX=0;entryY=0.5;entryDx=0;entryDy=0;" edge="1" parent="1" source="bCzsvnsTS2TMmKOJLa1n-8" target="bCzsvnsTS2TMmKOJLa1n-3">
          <mxGeometry width="50" height="50" relative="1" as="geometry">
            <mxPoint x="250" y="560" as="sourcePoint" />
            <mxPoint x="250" y="640" as="targetPoint" />
          </mxGeometry>
        </mxCell>
        <mxCell id="bCzsvnsTS2TMmKOJLa1n-10" value="&lt;h1&gt;&lt;font style=&quot;font-size: 14px&quot;&gt;Apriori關聯規則算法&lt;/font&gt;&lt;/h1&gt;&lt;p&gt;通過FP-growth算法找到拋料與良率的頻繁項集，再通過Apriori算法計算關聯係數&lt;/p&gt;" style="text;html=1;strokeColor=none;fillColor=none;spacing=5;spacingTop=-20;whiteSpace=wrap;overflow=hidden;rounded=0;" vertex="1" parent="1">
          <mxGeometry x="55" y="610" width="190" height="120" as="geometry" />
        </mxCell>
        <mxCell id="bCzsvnsTS2TMmKOJLa1n-11" value="&lt;h1&gt;&lt;span style=&quot;font-size: 14px&quot;&gt;指數分佈函數&lt;/span&gt;&lt;/h1&gt;&lt;p&gt;通過指數分佈函數計算吸嘴剩餘保養時間；將關聯後的數據進行指數分佈繪圖，預測保養週期內後期走勢&lt;/p&gt;" style="text;html=1;strokeColor=none;fillColor=none;spacing=5;spacingTop=-20;whiteSpace=wrap;overflow=hidden;rounded=0;" vertex="1" parent="1">
          <mxGeometry x="400" y="520" width="190" height="120" as="geometry" />
        </mxCell>
        <mxCell id="Jk7-eTZNPEbHa-RgvJYL-1" value="&lt;meta charset=&quot;utf-8&quot;&gt;&lt;span style=&quot;color: rgb(0, 0, 0); font-family: helvetica; font-size: 12px; font-style: normal; font-weight: 400; letter-spacing: normal; text-align: center; text-indent: 0px; text-transform: none; word-spacing: 0px; background-color: rgb(248, 249, 250); display: inline; float: none;&quot;&gt;特徵提取&lt;/span&gt;" style="shape=parallelogram;perimeter=parallelogramPerimeter;whiteSpace=wrap;html=1;fixedSize=1;" vertex="1" parent="1">
          <mxGeometry x="280" y="390" width="120" height="60" as="geometry" />
        </mxCell>
      </root>
    </mxGraphModel>
  </diagram>
</mxfile>
